Coordinates
version=1
nRows=12
nColumns=42
inDegrees=yes

Units are S.I. units (second, meters, Newtons, ...)
If the header above contains a line with 'inDegrees', this indicates whether rotational values are in degrees (yes) or radians (no).

endheader
time	pelvis_tilt	pelvis_list	pelvis_rotation	pelvis_tx	pelvis_ty	pelvis_tz	hip_flexion_r	hip_adduction_r	hip_rotation_r	knee_angle_r	knee_adduction_r	knee_angle_r_beta	ankle_angle_r	subtalar_angle_r	mtp_angle_r	hip_flexion_l	hip_adduction_l	hip_rotation_l	knee_angle_l	knee_adduction_l	knee_angle_l_beta	ankle_angle_l	subtalar_angle_l	mtp_angle_l	lumbar_extension	lumbar_bending	lumbar_rotation	arm_flex_r	arm_add_r	arm_rot_r	elbow_flex_r	pro_sup_r	wrist_flex_r	wrist_dev_r	arm_flex_l	arm_add_l	arm_rot_l	elbow_flex_l	pro_sup_l	wrist_flex_l	wrist_dev_l
      2.32000000	     13.30416029	      1.68758391	      2.70749580	     -0.50938322	      0.91300803	     -0.00544111	      6.63756752	    -11.85407845	    -22.04950173	     21.07451775	      9.24886213	      0.36781972	      6.77724128	     30.43109760	     -7.51073479	    -25.08357943	      3.01081567	      5.81694880	     19.89541795	     -3.24059769	      0.34724055	     16.89333781	      4.07361906	     -7.51073479	    -31.05441167	     -0.47282517	     -5.42666245	    -16.67994948	    -13.83144454	      6.54727342	     39.59411437	     90.00000001	      0.00000000	      0.00000000	     30.00214415	    -15.87494070	    -17.96979257	     46.36594266	     90.00000001	      0.00000000	      0.00000000
      2.33000000	     13.64770817	      1.47447238	      2.59993377	     -0.49953662	      0.91316569	     -0.00381321	      6.01015327	    -11.47911766	    -21.13065094	     21.82823228	      9.27880661	      0.38097452	      6.85926219	     29.56074133	     -7.51056543	    -25.64512481	      2.59879033	      5.71334515	     20.80527815	     -2.99364102	      0.36312061	     16.23672886	      3.80204896	     -7.51056543	    -31.15715410	     -0.15157303	     -5.24106084	    -15.90474025	    -13.83769500	      6.43556140	     38.91866747	     90.00000001	      0.00000000	      0.00000000	     29.13366941	    -16.06352291	    -18.14185003	     47.53987842	     90.00000001	      0.00000000	      0.00000000
      2.34000000	     14.03980958	      1.29256241	      2.44068834	     -0.48966250	      0.91355788	     -0.00194078	      5.32014415	    -11.10979694	    -20.23717237	     22.55218937	      9.32980475	      0.39360996	      6.89849247	     29.01172875	     -7.51041495	    -26.08327659	      2.20614933	      5.46186211	     22.03310846	     -2.70686989	      0.38455029	     15.36995556	      3.56392941	     -7.51041495	    -31.31529503	      0.08589018	     -5.02176372	    -15.08984117	    -13.82752907	      6.35916477	     38.25953531	     90.00000001	      0.00000000	      0.00000000	     28.25778176	    -16.25895618	    -18.34286505	     48.66381941	     90.00000001	      0.00000000	      0.00000000
      2.35000000	     14.51021109	      1.17594538	      2.19037424	     -0.47976490	      0.91426297	     -0.00006817	      4.52732841	    -10.82050577	    -19.50168782	     23.23325082	      9.37047111	      0.40549672	      6.92969024	     28.87724173	     -7.51032382	    -26.45996274	      1.90075880	      5.22317602	     23.51955041	     -2.28325875	      0.41049359	     14.32554764	      3.44411741	     -7.51032382	    -31.57163813	      0.24722815	     -4.73496380	    -14.25377926	    -13.84652929	      6.30957963	     37.74035124	     90.00000001	      0.00000000	      0.00000000	     27.39655404	    -16.38680818	    -18.54470676	     49.56768443	     90.00000001	      0.00000000	      0.00000000
      2.36000000	     14.92540262	      0.91777084	      1.95918249	     -0.46996502	      0.91502992	      0.00217363	      3.78740783	    -10.24451176	    -18.70004199	     23.80285423	      9.24997739	      0.41543818	      7.12501710	     28.76239028	     -7.51017081	    -26.40261388	      1.46708522	      4.44717445	     25.67096412	     -2.14201889	      0.44804285	     12.78125757	      3.04937325	     -7.51017081	    -31.79423197	      0.47408419	     -4.55886360	    -13.14873036	    -13.81405085	      6.28475598	     36.91018103	     90.00000001	      0.00000000	      0.00000000	     26.18584450	    -16.62189651	    -18.82197157	     51.06651094	     90.00000001	      0.00000000	      0.00000000
      2.37000000	     15.41115765	      0.71609043	      1.66727526	     -0.46012481	      0.91601085	      0.00449008	      2.91581579	     -9.74982630	    -18.02034725	     24.28140633	      9.15807400	      0.42379049	      7.33345028	     28.89617206	     -7.51001506	    -26.23538984	      1.07012078	      3.72647729	     28.15445744	     -1.87197492	      0.49138798	     11.08822869	      2.82842517	     -7.51001506	    -32.09132373	      0.61994601	     -4.30870291	    -12.10019324	    -13.79883214	      6.30486320	     36.28076229	     90.00000001	      0.00000000	      0.00000000	     25.05427983	    -16.78583682	    -19.08883539	     52.26519703	     90.00000001	      0.00000000	      0.00000000
      2.38000000	     15.98954518	      0.56471902	      1.36356275	     -0.45028420	      0.91724559	      0.00689719	      1.86531275	     -9.33074640	    -17.46353139	     24.66573244	      9.10621455	      0.43049824	      7.60318390	     29.19951241	     -7.50990387	    -25.97457764	      0.67746222	      3.14377653	     30.94388602	     -1.47454273	      0.54007269	      9.07156209	      2.66777121	     -7.50990387	    -32.49768843	      0.67871747	     -4.04666778	    -11.08163976	    -13.78888950	      6.34029150	     35.83034100	     90.00000001	      0.00000000	      0.00000000	     23.98940247	    -16.91734846	    -19.36090610	     53.32187468	     90.00000001	      0.00000000	      0.00000000
      2.39000000	     16.43421043	      0.24444718	      1.10007015	     -0.44057610	      0.91828560	      0.00938632	      0.92692040	     -8.65042415	    -16.95876506	     24.88764556	      8.89599392	      0.43437136	      7.98488773	     29.58095123	     -7.50975327	    -25.22168843	      0.15139052	      2.25521846	     34.34804905	     -1.41508158	      0.59948655	      6.76946765	      2.17145707	     -7.50975327	    -32.77597459	      0.88896355	     -3.83190560	     -9.91581717	    -13.77525403	      6.45397855	     35.30543393	     90.00000001	      0.00000000	      0.00000000	     22.67406822	    -17.04003264	    -19.68853612	     54.59680285	     90.00000001	      0.00000000	      0.00000000
      2.40000000	     16.87550721	     -0.06164203	      0.78353300	     -0.43095386	      0.91932187	      0.01208579	     -0.02366658	     -8.00250037	    -16.56517959	     25.10170074	      8.66734540	      0.43810733	      8.38895266	     29.93632698	     -7.50955999	    -24.28465241	     -0.42817616	      1.52698969	     38.04278344	     -1.16969564	      0.66397183	      4.51643545	      1.66757472	     -7.50955999	    -33.06380505	      1.02986127	     -3.53038950	     -8.79910531	    -13.79003233	      6.65031947	     34.93383635	     90.00000001	      0.00000000	      0.00000000	     21.45226967	    -17.09097617	    -20.05135757	     55.68202803	     90.00000001	      0.00000000	      0.00000000
      2.41000000	     17.24856504	     -0.37497030	      0.54405739	     -0.42150326	      0.92024835	      0.01464676	     -0.97642340	     -7.39436467	    -16.06495219	     25.21221963	      8.61956894	      0.44003624	      8.91357822	     29.98056513	     -7.50926322	    -23.09161293	     -0.99437515	      1.11390463	     41.95608985	     -1.00185749	      0.73227191	      2.15405930	      1.14031230	     -7.50926322	    -33.30259448	      1.18388162	     -3.30694270	     -7.70201948	    -13.82281495	      6.83720436	     34.76040314	     90.00000001	      0.00000000	      0.00000000	     20.23025518	    -17.12891154	    -20.41116184	     56.67668489	     90.00000001	      0.00000000	      0.00000000
      2.42000000	     17.59146809	     -0.67662695	      0.36747500	     -0.41216006	      0.92114702	      0.01706147	     -1.96230417	     -6.84459754	    -15.59594021	     25.21948858	      8.66442367	      0.44016311	      9.47642532	     30.00506972	     -7.50899845	    -21.75643988	     -1.56868092	      1.08102619	     45.92248687	     -0.70212389	      0.80149860	     -0.11192954	      0.48132348	     -7.50899845	    -33.52964915	      1.34002599	     -3.12357673	     -6.63675977	    -13.87228290	      7.01593672	     34.76441271	     90.00000001	      0.00000000	      0.00000000	     19.01917183	    -17.10026805	    -20.76324287	     57.58526487	     90.00000001	      0.00000000	      0.00000000
      2.43000000	     17.85000864	     -1.06731084	      0.13885410	     -0.40306931	      0.92188081	      0.01983290	     -2.78007945	     -6.13879137	    -15.19164339	     25.33026454	      8.50960468	      0.44209652	     10.00813941	     29.95607471	     -7.50860168	    -20.23787370	     -2.26340019	      1.48052318	     50.01719491	      0.00129092	      0.87296473	     -2.00976836	     -1.31314405	     -7.50860168	    -33.69166475	      1.49475843	     -2.84912939	     -5.52584095	    -13.93315055	      7.47474666	     34.75912514	     90.00000001	      0.00000000	      0.00000000	     17.87218149	    -16.98767249	    -21.25995678	     58.40814735	     90.00000001	      0.00000000	      0.00000000
